<mxfile host="app.diagrams.net" modified="2022-08-01T19:36:09.276Z" agent="5.0 (Windows NT 10.0; Win64; x64) AppleWebKit/537.36 (KHTML, like Gecko) Chrome/103.0.0.0 Safari/537.36" etag="-kr1CSbFDwuyeci--s6O" version="20.2.2" type="github">
  <diagram id="SDQb7QFVetRvle7m8Iui" name="Page-1">
    <mxGraphModel dx="1422" dy="754" grid="1" gridSize="10" guides="1" tooltips="1" connect="1" arrows="1" fold="1" page="1" pageScale="1" pageWidth="827" pageHeight="1169" math="0" shadow="0">
      <root>
        <mxCell id="0" />
        <mxCell id="1" parent="0" />
        <mxCell id="0otL6j07nQ3pdBHTpuse-31" value="" style="rounded=0;whiteSpace=wrap;html=1;shadow=0;fontSize=14;strokeColor=none;" parent="1" vertex="1">
          <mxGeometry x="30" y="30" width="580" height="440" as="geometry" />
        </mxCell>
        <mxCell id="0otL6j07nQ3pdBHTpuse-17" value="&lt;b&gt;Work the plan&lt;/b&gt;" style="rounded=0;whiteSpace=wrap;html=1;fontSize=14;verticalAlign=bottom;shadow=0;" parent="1" vertex="1">
          <mxGeometry x="360" y="40" width="240" height="420" as="geometry" />
        </mxCell>
        <mxCell id="0otL6j07nQ3pdBHTpuse-16" value="&lt;b&gt;Plan the work&lt;/b&gt;" style="rounded=0;whiteSpace=wrap;html=1;fontSize=14;verticalAlign=bottom;shadow=0;" parent="1" vertex="1">
          <mxGeometry x="40" y="40" width="240" height="420" as="geometry" />
        </mxCell>
        <mxCell id="0otL6j07nQ3pdBHTpuse-22" style="edgeStyle=orthogonalEdgeStyle;rounded=0;orthogonalLoop=1;jettySize=auto;html=1;exitX=0.5;exitY=1;exitDx=0;exitDy=0;entryX=0.5;entryY=0;entryDx=0;entryDy=0;fontSize=14;" parent="1" source="0otL6j07nQ3pdBHTpuse-1" target="0otL6j07nQ3pdBHTpuse-2" edge="1">
          <mxGeometry relative="1" as="geometry" />
        </mxCell>
        <mxCell id="0otL6j07nQ3pdBHTpuse-1" value="1. Decompose the project or programme scope" style="rounded=0;whiteSpace=wrap;html=1;" parent="1" vertex="1">
          <mxGeometry x="80" y="80" width="160" height="40" as="geometry" />
        </mxCell>
        <mxCell id="0otL6j07nQ3pdBHTpuse-23" style="edgeStyle=orthogonalEdgeStyle;rounded=0;orthogonalLoop=1;jettySize=auto;html=1;exitX=0.5;exitY=1;exitDx=0;exitDy=0;entryX=0.5;entryY=0;entryDx=0;entryDy=0;fontSize=14;" parent="1" source="0otL6j07nQ3pdBHTpuse-2" target="0otL6j07nQ3pdBHTpuse-3" edge="1">
          <mxGeometry relative="1" as="geometry" />
        </mxCell>
        <mxCell id="0otL6j07nQ3pdBHTpuse-2" value="2. Assign Responsibility" style="rounded=0;whiteSpace=wrap;html=1;" parent="1" vertex="1">
          <mxGeometry x="80" y="140" width="160" height="40" as="geometry" />
        </mxCell>
        <mxCell id="0otL6j07nQ3pdBHTpuse-24" style="edgeStyle=orthogonalEdgeStyle;rounded=0;orthogonalLoop=1;jettySize=auto;html=1;exitX=0.5;exitY=1;exitDx=0;exitDy=0;entryX=0.5;entryY=0;entryDx=0;entryDy=0;fontSize=14;" parent="1" source="0otL6j07nQ3pdBHTpuse-3" target="0otL6j07nQ3pdBHTpuse-4" edge="1">
          <mxGeometry relative="1" as="geometry" />
        </mxCell>
        <mxCell id="0otL6j07nQ3pdBHTpuse-3" value="3. Schedule the Work" style="rounded=0;whiteSpace=wrap;html=1;" parent="1" vertex="1">
          <mxGeometry x="80" y="200" width="160" height="40" as="geometry" />
        </mxCell>
        <mxCell id="0otL6j07nQ3pdBHTpuse-25" style="edgeStyle=orthogonalEdgeStyle;rounded=0;orthogonalLoop=1;jettySize=auto;html=1;exitX=0.5;exitY=1;exitDx=0;exitDy=0;entryX=0.5;entryY=0;entryDx=0;entryDy=0;fontSize=14;" parent="1" source="0otL6j07nQ3pdBHTpuse-4" target="0otL6j07nQ3pdBHTpuse-5" edge="1">
          <mxGeometry relative="1" as="geometry" />
        </mxCell>
        <mxCell id="0otL6j07nQ3pdBHTpuse-4" value="4. Develop time-phased budget" style="rounded=0;whiteSpace=wrap;html=1;" parent="1" vertex="1">
          <mxGeometry x="80" y="260" width="160" height="40" as="geometry" />
        </mxCell>
        <mxCell id="0otL6j07nQ3pdBHTpuse-19" style="edgeStyle=orthogonalEdgeStyle;rounded=0;orthogonalLoop=1;jettySize=auto;html=1;exitX=1;exitY=0.5;exitDx=0;exitDy=0;entryX=1;entryY=0.5;entryDx=0;entryDy=0;fontSize=14;" parent="1" source="0otL6j07nQ3pdBHTpuse-5" target="0otL6j07nQ3pdBHTpuse-3" edge="1">
          <mxGeometry relative="1" as="geometry" />
        </mxCell>
        <mxCell id="0otL6j07nQ3pdBHTpuse-26" style="edgeStyle=orthogonalEdgeStyle;rounded=0;orthogonalLoop=1;jettySize=auto;html=1;exitX=0.5;exitY=1;exitDx=0;exitDy=0;entryX=0.5;entryY=0;entryDx=0;entryDy=0;fontSize=14;" parent="1" source="0otL6j07nQ3pdBHTpuse-5" target="0otL6j07nQ3pdBHTpuse-6" edge="1">
          <mxGeometry relative="1" as="geometry" />
        </mxCell>
        <mxCell id="0otL6j07nQ3pdBHTpuse-5" value="5. Assign objective measures of performance" style="rounded=0;whiteSpace=wrap;html=1;" parent="1" vertex="1">
          <mxGeometry x="80" y="320" width="160" height="40" as="geometry" />
        </mxCell>
        <mxCell id="0otL6j07nQ3pdBHTpuse-18" style="edgeStyle=orthogonalEdgeStyle;rounded=0;orthogonalLoop=1;jettySize=auto;html=1;exitX=1;exitY=0.5;exitDx=0;exitDy=0;entryX=0;entryY=0.5;entryDx=0;entryDy=0;fontSize=14;" parent="1" source="0otL6j07nQ3pdBHTpuse-6" target="0otL6j07nQ3pdBHTpuse-7" edge="1">
          <mxGeometry relative="1" as="geometry" />
        </mxCell>
        <mxCell id="0otL6j07nQ3pdBHTpuse-6" value="6. Set the PMB" style="rounded=0;whiteSpace=wrap;html=1;" parent="1" vertex="1">
          <mxGeometry x="80" y="380" width="160" height="40" as="geometry" />
        </mxCell>
        <mxCell id="0otL6j07nQ3pdBHTpuse-27" style="edgeStyle=orthogonalEdgeStyle;rounded=0;orthogonalLoop=1;jettySize=auto;html=1;exitX=0.5;exitY=1;exitDx=0;exitDy=0;entryX=0.5;entryY=0;entryDx=0;entryDy=0;fontSize=14;" parent="1" source="0otL6j07nQ3pdBHTpuse-7" target="0otL6j07nQ3pdBHTpuse-9" edge="1">
          <mxGeometry relative="1" as="geometry" />
        </mxCell>
        <mxCell id="0otL6j07nQ3pdBHTpuse-7" value="7. Authorize and perform the work" style="rounded=0;whiteSpace=wrap;html=1;" parent="1" vertex="1">
          <mxGeometry x="400" y="80" width="160" height="40" as="geometry" />
        </mxCell>
        <mxCell id="0otL6j07nQ3pdBHTpuse-28" style="edgeStyle=orthogonalEdgeStyle;rounded=0;orthogonalLoop=1;jettySize=auto;html=1;exitX=0.5;exitY=1;exitDx=0;exitDy=0;entryX=0.5;entryY=0;entryDx=0;entryDy=0;fontSize=14;" parent="1" source="0otL6j07nQ3pdBHTpuse-9" target="0otL6j07nQ3pdBHTpuse-10" edge="1">
          <mxGeometry relative="1" as="geometry" />
        </mxCell>
        <mxCell id="0otL6j07nQ3pdBHTpuse-9" value="8. Accumulate and report performance data" style="rounded=0;whiteSpace=wrap;html=1;" parent="1" vertex="1">
          <mxGeometry x="400" y="140" width="160" height="40" as="geometry" />
        </mxCell>
        <mxCell id="0otL6j07nQ3pdBHTpuse-29" style="edgeStyle=orthogonalEdgeStyle;rounded=0;orthogonalLoop=1;jettySize=auto;html=1;exitX=0.5;exitY=1;exitDx=0;exitDy=0;entryX=0.5;entryY=0;entryDx=0;entryDy=0;fontSize=14;" parent="1" source="0otL6j07nQ3pdBHTpuse-10" target="0otL6j07nQ3pdBHTpuse-11" edge="1">
          <mxGeometry relative="1" as="geometry" />
        </mxCell>
        <mxCell id="0otL6j07nQ3pdBHTpuse-10" value="9. Analyze performance data" style="rounded=0;whiteSpace=wrap;html=1;" parent="1" vertex="1">
          <mxGeometry x="400" y="200" width="160" height="40" as="geometry" />
        </mxCell>
        <mxCell id="0otL6j07nQ3pdBHTpuse-30" style="edgeStyle=orthogonalEdgeStyle;rounded=0;orthogonalLoop=1;jettySize=auto;html=1;exitX=0.5;exitY=1;exitDx=0;exitDy=0;entryX=0.5;entryY=0;entryDx=0;entryDy=0;fontSize=14;" parent="1" source="0otL6j07nQ3pdBHTpuse-11" target="0otL6j07nQ3pdBHTpuse-12" edge="1">
          <mxGeometry relative="1" as="geometry" />
        </mxCell>
        <mxCell id="0otL6j07nQ3pdBHTpuse-11" value="10. Take management action" style="rounded=0;whiteSpace=wrap;html=1;" parent="1" vertex="1">
          <mxGeometry x="400" y="260" width="160" height="40" as="geometry" />
        </mxCell>
        <mxCell id="0otL6j07nQ3pdBHTpuse-20" style="edgeStyle=orthogonalEdgeStyle;rounded=0;orthogonalLoop=1;jettySize=auto;html=1;exitX=1;exitY=0.5;exitDx=0;exitDy=0;entryX=1;entryY=0.5;entryDx=0;entryDy=0;fontSize=14;" parent="1" source="0otL6j07nQ3pdBHTpuse-12" target="0otL6j07nQ3pdBHTpuse-7" edge="1">
          <mxGeometry relative="1" as="geometry" />
        </mxCell>
        <mxCell id="0otL6j07nQ3pdBHTpuse-21" style="edgeStyle=orthogonalEdgeStyle;rounded=0;orthogonalLoop=1;jettySize=auto;html=1;entryX=0.5;entryY=0;entryDx=0;entryDy=0;fontSize=14;exitX=1;exitY=0.5;exitDx=0;exitDy=0;" parent="1" source="0otL6j07nQ3pdBHTpuse-12" target="0otL6j07nQ3pdBHTpuse-1" edge="1">
          <mxGeometry relative="1" as="geometry" />
        </mxCell>
        <mxCell id="0otL6j07nQ3pdBHTpuse-12" value="11. Mantain the baseline" style="rounded=0;whiteSpace=wrap;html=1;" parent="1" vertex="1">
          <mxGeometry x="400" y="320" width="160" height="40" as="geometry" />
        </mxCell>
      </root>
    </mxGraphModel>
  </diagram>
</mxfile>
